<?xml version="1.0" encoding="UTF-8"?>
<!DOCTYPE svg PUBLIC "-//W3C//DTD SVG 1.1//EN" "http://www.w3.org/Graphics/SVG/1.1/DTD/svg11.dtd">
<!-- Creator: CorelDRAW X7 -->
<svg xmlns="http://www.w3.org/2000/svg" xml:space="preserve" width="64px" height="64px" version="1.1" style="shape-rendering:geometricPrecision; text-rendering:geometricPrecision; image-rendering:optimizeQuality; fill-rule:evenodd; clip-rule:evenodd"
viewBox="0 0 64 64"
 xmlns:xlink="http://www.w3.org/1999/xlink"
 aria-hidden="true">
 <defs>
  <style type="text/css">
   <![CDATA[
    .fil0 {fill:#C2C2CA}
   ]]>
  </style>
 </defs>
 <g id="Layer_x0020_1">
  <metadata id="CorelCorpID_0Corel-Layer"/>
  <g id="_324282456">
   <g>
    <path class="fil0" d="M32 59c-15,0 -27,-12 -27,-27 0,-15 12,-27 27,-27 15,0 27,12 27,27 0,15 -12,27 -27,27l0 0 0 0zm0 -40c-7,0 -13,6 -13,13 0,7 6,13 13,13 7,0 13,-6 13,-13 0,-7 -6,-13 -13,-13l0 0 0 0zm-9 13c0,-5 4,-9 9,-9 5,0 9,4 9,9 0,5 -4,9 -9,9 -5,0 -9,-4 -9,-9l0 0zm5 0c0,2 2,4 4,4 2,0 4,-2 4,-4 0,-2 -2,-4 -4,-4 -2,0 -4,2 -4,4l0 0z"/>
   </g>
  </g>
 </g>
</svg>
