<?xml version="1.0" encoding="UTF-8"?>
<!DOCTYPE svg PUBLIC "-//W3C//DTD SVG 1.1//EN" "http://www.w3.org/Graphics/SVG/1.1/DTD/svg11.dtd">
<!-- Creator: CorelDRAW X7 -->
<svg xmlns="http://www.w3.org/2000/svg" xml:space="preserve" width="64px" height="64px" version="1.1" style="shape-rendering:geometricPrecision; text-rendering:geometricPrecision; image-rendering:optimizeQuality; fill-rule:evenodd; clip-rule:evenodd"
viewBox="0 0 64 64"
 xmlns:xlink="http://www.w3.org/1999/xlink">
 <defs>
  <style type="text/css">
   <![CDATA[
    .fil0 {fill:#C2C2CA}
   ]]>
  </style>
 </defs>
 <g id="Layer_x0020_1">
  <metadata id="CorelCorpID_0Corel-Layer"/>
  <g id="_306730288">
   <g>
    <path class="fil0" d="M32 18l-21 17c0,0 0,0 0,0 0,0 0,0 0,1l0 17c0,0 0,1 1,1 0,1 1,1 2,1l13 0 0 -14 10 0 0 14 13 0c1,0 2,0 2,-1 1,0 1,-1 1,-1l0 -17c0,-1 0,-1 0,-1l-21 -17z"/>
    <path class="fil0" d="M61 31l-8 -6 0 -15c0,0 0,-1 -1,-1 0,0 0,0 0,0l-7 0c-1,0 -1,0 -1,0 0,0 0,1 0,1l0 7 -9 -7c-1,-1 -2,-1 -3,-1 -1,0 -2,0 -3,1l-26 21c0,1 0,1 0,1 0,1 0,1 0,1l2 3c1,0 1,0 1,0 0,0 1,0 1,0l25 -21 25 21c0,0 0,0 1,0l0 0c0,0 0,0 1,0l2 -3c0,0 0,0 0,-1 0,0 0,0 0,-1l0 0z"/>
   </g>
  </g>
 </g>
</svg>
