<?xml version="1.0" encoding="UTF-8"?>
<!DOCTYPE svg PUBLIC "-//W3C//DTD SVG 1.1//EN" "http://www.w3.org/Graphics/SVG/1.1/DTD/svg11.dtd">
<!-- Creator: CorelDRAW X7 -->
<svg xmlns="http://www.w3.org/2000/svg" xml:space="preserve" width="64px" height="64px" version="1.1" style="shape-rendering:geometricPrecision; text-rendering:geometricPrecision; image-rendering:optimizeQuality; fill-rule:evenodd; clip-rule:evenodd"
viewBox="0 0 64 64"
 xmlns:xlink="http://www.w3.org/1999/xlink"
 aria-hidden="true">
 <defs>
  <style type="text/css">
   <![CDATA[
    .fil0 {fill:#C2C2CA}
   ]]>
  </style>
 </defs>
 <g id="Layer_x0020_1">
  <metadata id="CorelCorpID_0Corel-Layer"/>
  <g id="_324694304">
   <g>
    <path class="fil0" d="M41 50c0,5 -5,9 -11,9 -7,0 -12,-4 -12,-9 0,-5 5,-9 12,-9 2,0 5,1 7,2l0 -28 0 -7c0,-3 2,-4 4,-3l18 5 0 9c0,3 -1,4 -4,4l-14 -5 0 32zm-36 -45l27 0 0 4 -27 0 0 -4 0 0zm0 9l27 0 0 4 -27 0 0 -4 0 0zm0 9l27 0 0 4 -27 0 0 -4 0 0z"/>
   </g>
  </g>
 </g>
</svg>
